<svg aria-hidden="true" style="position: absolute; width: 0; height: 0; overflow: hidden;" version="1.1" xmlns="http://www.w3.org/2000/svg" xmlns:xlink="http://www.w3.org/1999/xlink">
<defs>
<symbol id="icon-close" viewBox="0 0 32 32">
<path d="M25.333 5.333q0.573 0 0.953 0.38t0.38 0.953q0 0.563-0.385 0.948l-8.396 8.385 8.396 8.385q0.385 0.385 0.385 0.948 0 0.573-0.38 0.953t-0.953 0.38q-0.563 0-0.948-0.385l-8.385-8.396-8.385 8.396q-0.385 0.385-0.948 0.385-0.573 0-0.953-0.38t-0.38-0.953q0-0.563 0.385-0.948l8.396-8.385-8.396-8.385q-0.385-0.385-0.385-0.948 0-0.573 0.38-0.953t0.953-0.38q0.563 0 0.948 0.385l8.385 8.396 8.385-8.396q0.385-0.385 0.948-0.385z"></path>
</symbol>
<symbol id="icon-burger" viewBox="0 0 32 32">
<path d="M1.333 14.667h29.333c0.736 0 1.333 0.597 1.333 1.333s-0.597 1.333-1.333 1.333h-29.333c-0.736 0-1.333-0.597-1.333-1.333s0.597-1.333 1.333-1.333z"></path>
<path d="M1.333 5.333h29.333c0.736 0 1.333 0.597 1.333 1.333s-0.597 1.333-1.333 1.333h-29.333c-0.736 0-1.333-0.597-1.333-1.333s0.597-1.333 1.333-1.333z"></path>
<path d="M1.333 24h29.333c0.736 0 1.333 0.597 1.333 1.333s-0.597 1.333-1.333 1.333h-29.333c-0.736 0-1.333-0.597-1.333-1.333s0.597-1.333 1.333-1.333z"></path>
</symbol>
<symbol id="icon-user" viewBox="0 0 32 32">
<path d="M16 16c4.418 0 8-3.582 8-8s-3.582-8-8-8c-4.418 0-8 3.582-8 8v0c0.005 4.416 3.584 7.995 8 8h0zM16 2.667c2.946 0 5.333 2.388 5.333 5.333s-2.388 5.333-5.333 5.333c-2.946 0-5.333-2.388-5.333-5.333v0c0-2.946 2.388-5.333 5.333-5.333v0z"></path>
<path d="M16 18.667c-6.624 0.008-11.992 5.376-12 11.999v0.001c0 0.736 0.597 1.333 1.333 1.333s1.333-0.597 1.333-1.333v0c0-5.155 4.179-9.333 9.333-9.333s9.333 4.179 9.333 9.333v0c0 0.736 0.597 1.333 1.333 1.333s1.333-0.597 1.333-1.333v0c-0.008-6.624-5.376-11.992-11.999-12h-0.001z"></path>
</symbol>
<symbol id="icon-basket" viewBox="0 0 32 32">
<path d="M30.284 5.436c-0.737-0.88-1.837-1.436-3.066-1.436-0.002 0-0.003 0-0.005 0h-21.557l-0.056-0.468c-0.242-1.998-1.927-3.531-3.971-3.532h-0.296c-0.736 0-1.333 0.597-1.333 1.333s0.597 1.333 1.333 1.333v0h0.296c0.681 0 1.243 0.511 1.323 1.171l0.001 0.006 1.835 15.6c0.402 3.332 3.213 5.889 6.621 5.889 0 0 0 0 0 0h13.924c0.736 0 1.333-0.597 1.333-1.333s-0.597-1.333-1.333-1.333v0h-13.924c-1.727-0.005-3.196-1.103-3.751-2.639l-0.009-0.028h15.893c0 0 0 0 0 0 3.264 0 5.98-2.345 6.555-5.443l0.006-0.041 1.047-5.805c0.041-0.214 0.064-0.461 0.064-0.712 0-0.978-0.352-1.874-0.936-2.568l0.005 0.006zM28.533 8.237l-1.048 5.805c-0.349 1.883-1.978 3.291-3.937 3.291-0.002 0-0.004 0-0.006 0h-16.317l-1.255-10.667h21.243c0.002 0 0.005-0 0.008-0 0.736 0 1.333 0.597 1.333 1.333 0 0.084-0.008 0.166-0.023 0.246l0.001-0.008z"></path>
<path d="M12 29.333c0 1.473-1.194 2.667-2.667 2.667s-2.667-1.194-2.667-2.667c0-1.473 1.194-2.667 2.667-2.667s2.667 1.194 2.667 2.667z"></path>
<path d="M25.333 29.333c0 1.473-1.194 2.667-2.667 2.667s-2.667-1.194-2.667-2.667c0-1.473 1.194-2.667 2.667-2.667s2.667 1.194 2.667 2.667z"></path>
</symbol>
</defs>
</svg>
